<?xml version="1.0" encoding="utf-8"?>
<!-- Generator: Adobe Illustrator 21.1.0, SVG Export Plug-In . SVG Version: 6.00 Build 0)  -->
<svg version="1.1" id="文字" xmlns="http://www.w3.org/2000/svg" xmlns:xlink="http://www.w3.org/1999/xlink" x="0px" y="0px"
	 viewBox="0 0 33 33" style="enable-background:new 0 0 33 33;" xml:space="preserve">
<style type="text/css">
	.st0{fill:#FFFFFF;}
</style>
<g>
	<path class="st0" d="M16.5,33C7.4,33,0,25.6,0,16.5S7.4,0,16.5,0S33,7.4,33,16.5S25.6,33,16.5,33z M16.5,2C8.5,2,2,8.5,2,16.5
		C2,24.5,8.5,31,16.5,31S31,24.5,31,16.5C31,8.5,24.5,2,16.5,2z"/>
	<path class="st0" d="M23,17.5h-7.5V8.2c0-0.6,0.4-1,1-1s1,0.4,1,1v7.3H23c0.6,0,1,0.4,1,1S23.6,17.5,23,17.5z"/>
</g>
</svg>
