<?xml version="1.0" encoding="utf-8"?>
<!-- Generator: Adobe Illustrator 21.1.0, SVG Export Plug-In . SVG Version: 6.00 Build 0)  -->
<svg version="1.1" id="文字" xmlns="http://www.w3.org/2000/svg" xmlns:xlink="http://www.w3.org/1999/xlink" x="0px" y="0px"
	 viewBox="0 0 392.7 32.2" style="enable-background:new 0 0 392.7 32.2;" xml:space="preserve">
<style type="text/css">
	.st0{fill:#FFFFFF;}
</style>
<g>
	<g>
		<g>
			<path class="st0" d="M17.1,4.5l1.2-2.1l1.2,2.1h2.3l-2.1-3.7C19.4,0.3,18.9,0,18.3,0S17.2,0.3,17,0.8l-2.1,3.7H17.1z"/>
			<path class="st0" d="M36.4,29.8L25.2,10.3v3.9l9.2,16H2.3l9.2-16v-3.9L0.2,29.8c-0.3,0.5-0.3,1.1,0,1.6c0.3,0.5,0.8,0.8,1.4,0.8
				h33.5c0.6,0,1.1-0.3,1.4-0.8C36.7,30.9,36.7,30.3,36.4,29.8z"/>
		</g>
		<path class="st0" d="M24.7,6.7V5.8h-5.4V5.2h-1.9v0.6h-5.4v0.9h5.4v0.5h-4.9V11h1.7l-2.3,2.8h2.2l2.3-2.8h0.9v2.8h1.9V11h0.9
			l2.3,2.8h2.2L22.4,11h1.7V7.2h-4.9V6.7H24.7z M14.4,8.2h3v0.4h-3V8.2z M14.4,10V9.6h3V10H14.4z M19.3,9.6h3V10h-3V9.6z M22.2,8.2
			v0.4h-3V8.2H22.2z"/>
		<g>
			<path class="st0" d="M25,20.4h-0.9v-4.3h-2.4v-1h-2v1h-2.4v4.3h-0.9v1h2.5l-2.1,2.5H19l1.7-2l1.7,2h2.2l-2.1-2.5H25V20.4z
				 M22.3,17.2v3.3h-0.6v-3.3H22.3z M19,17.2h0.6v3.3H19V17.2z"/>
			<path class="st0" d="M12,23.2h4.1V16H12V23.2z M13.6,22.3v-2.7h0.9v2.7H13.6z M14.5,16.8v1.8h-0.9v-1.8H14.5z"/>
		</g>
	</g>
	<g>
		<path class="st0" d="M47,2.1h21v2.3h-9.1v26.5h-2.7V4.4H47V2.1z"/>
		<path class="st0" d="M74.7,16.5c0-2.1,0.3-4.1,0.9-5.9c0.6-1.8,1.4-3.4,2.5-4.8c1.1-1.4,2.5-2.5,4.2-3.3c1.7-0.8,3.6-1.2,5.7-1.2
			c2.2,0,4.2,0.4,5.9,1.2c1.7,0.8,3.1,1.9,4.2,3.2c1.1,1.4,2,3,2.6,4.8s0.9,3.8,0.9,5.9c0,2.1-0.3,4-0.9,5.9
			c-0.6,1.8-1.4,3.4-2.5,4.8c-1.1,1.4-2.5,2.5-4.2,3.3c-1.7,0.8-3.6,1.2-5.8,1.2c-2.2,0-4.2-0.4-5.8-1.2c-1.7-0.8-3.1-1.9-4.2-3.3
			c-1.1-1.4-2-3-2.5-4.8C75,20.6,74.7,18.6,74.7,16.5z M88.1,29.3c1.9,0,3.5-0.4,4.8-1.1c1.3-0.7,2.5-1.6,3.3-2.8
			c0.9-1.2,1.5-2.5,1.9-4.1c0.4-1.5,0.6-3.2,0.6-4.8c0-2-0.2-3.8-0.7-5.4c-0.5-1.6-1.2-2.9-2.1-4.1s-2.1-2-3.4-2.6
			c-1.3-0.6-2.8-0.9-4.5-0.9c-1.8,0-3.4,0.4-4.8,1.1c-1.3,0.7-2.5,1.7-3.3,2.9c-0.9,1.2-1.5,2.6-1.9,4.1c-0.4,1.5-0.6,3.2-0.6,4.8
			c0,1.7,0.2,3.3,0.6,4.9c0.4,1.5,1.1,2.9,1.9,4.1c0.9,1.2,2,2.1,3.3,2.8C84.6,29,86.2,29.3,88.1,29.3z"/>
		<path class="st0" d="M110.9,30.9V2.1h19.2v2.3h-16.4v10.4h14.8v2.3h-14.8v11.4h16.8v2.3H110.9z"/>
		<path class="st0" d="M140.3,30.9V2.1h2.7v28.8H140.3z"/>
		<path class="st0" d="M167,2.1h21v2.3h-9.1v26.5h-2.7V4.4H167V2.1z"/>
		<path class="st0" d="M195.8,30.9V2.1h2.7v12.4h17V2.1h2.7v28.8h-2.7V16.8h-17v14.1H195.8z"/>
		<path class="st0" d="M228.7,30.9V2.1h19.2v2.3h-16.4v10.4h14.8v2.3h-14.8v11.4h16.8v2.3H228.7z"/>
		<path class="st0" d="M254.5,30.9l11.3-28.8h3.1l11,28.8h-2.8l-3.3-9h-13.1l-3.4,9H254.5z M261.7,19.5h11.3l-5.6-15.1L261.7,19.5z"
			/>
		<path class="st0" d="M285.3,2.1h21v2.3h-9.1v26.5h-2.7V4.4h-9.1V2.1z"/>
		<path class="st0" d="M314.1,30.9V2.1h19.2v2.3h-16.4v10.4h14.8v2.3h-14.8v11.4h16.8v2.3H314.1z"/>
		<path class="st0" d="M345.2,17.8v13.1l-2.7,0V2.1h11.3c3.2,0,5.6,0.6,7.3,1.8s2.5,3.1,2.5,5.8c0,1.8-0.4,3.3-1.1,4.3
			c-0.7,1.1-1.9,2-3.6,2.7c0.9,0.3,1.5,0.7,2,1.3c0.5,0.6,0.8,1.2,1.1,1.9c0.2,0.7,0.4,1.5,0.5,2.3s0.1,1.6,0.1,2.3
			c0,1.1,0.1,2,0.1,2.7c0.1,0.7,0.1,1.3,0.2,1.8c0.1,0.5,0.2,0.8,0.3,1.1c0.1,0.3,0.3,0.4,0.5,0.6v0.2l-3,0c-0.3-0.5-0.5-1.1-0.6-2
			c-0.1-0.9-0.2-1.7-0.3-2.7c-0.1-0.9-0.1-1.8-0.2-2.7s-0.1-1.6-0.2-2.2c-0.2-0.8-0.4-1.4-0.8-1.9c-0.4-0.5-0.8-0.8-1.3-1.1
			c-0.5-0.2-1.1-0.4-1.7-0.5c-0.6-0.1-1.3-0.1-1.9-0.1H345.2z M353.7,15.5c1,0,2-0.1,2.8-0.3c0.9-0.2,1.6-0.6,2.3-1
			c0.6-0.5,1.1-1.1,1.5-1.8c0.4-0.7,0.6-1.6,0.6-2.6c0-1.1-0.2-1.9-0.6-2.6s-0.9-1.2-1.6-1.6c-0.7-0.4-1.4-0.7-2.2-0.8
			c-0.8-0.2-1.7-0.2-2.6-0.2h-8.6v11.1H353.7z"/>
		<path class="st0" d="M374.3,22.3c0.1,1.3,0.4,2.4,0.9,3.3c0.5,0.9,1.1,1.6,1.8,2.2c0.7,0.6,1.6,1,2.5,1.2s2,0.4,3.1,0.4
			c1.3,0,2.4-0.2,3.3-0.5c0.9-0.3,1.7-0.8,2.3-1.3c0.6-0.5,1-1.2,1.3-1.9c0.3-0.7,0.4-1.5,0.4-2.3c0-1.1-0.3-2-0.8-2.7
			c-0.5-0.7-1.2-1.3-2-1.7c-0.8-0.4-1.7-0.8-2.8-1.1c-1.1-0.3-2.1-0.5-3.2-0.8c-1.1-0.3-2.2-0.6-3.2-0.9s-2-0.8-2.8-1.4
			c-0.8-0.6-1.5-1.3-2-2.3c-0.5-0.9-0.8-2.1-0.8-3.5c0-1,0.2-1.9,0.6-2.9s1-1.8,1.8-2.5c0.8-0.7,1.8-1.3,3.1-1.7
			c1.2-0.4,2.6-0.6,4.2-0.6c1.6,0,3,0.2,4.3,0.7c1.2,0.5,2.2,1.1,3,1.9c0.8,0.8,1.4,1.7,1.8,2.7c0.4,1,0.6,2.1,0.6,3.3h-2.6
			c0-1.1-0.2-2-0.6-2.8c-0.4-0.8-0.9-1.5-1.6-2c-0.7-0.5-1.4-0.9-2.3-1.1s-1.7-0.4-2.6-0.4c-1.4,0-2.6,0.2-3.5,0.6
			c-0.9,0.4-1.7,0.9-2.3,1.5c-0.6,0.6-0.9,1.3-1.2,2c-0.2,0.7-0.3,1.5-0.1,2.2c0.2,0.9,0.5,1.7,1.1,2.2c0.6,0.6,1.3,1,2.2,1.4
			s1.8,0.7,2.8,0.9s2.1,0.5,3.1,0.7c1.1,0.3,2.1,0.6,3.1,0.9s1.9,0.8,2.7,1.4c0.8,0.6,1.4,1.3,1.9,2.3s0.7,2.1,0.7,3.5
			c0,2.7-0.9,4.7-2.8,6.2c-1.8,1.5-4.4,2.2-7.8,2.2c-1.5,0-2.9-0.2-4.2-0.6c-1.3-0.4-2.4-1-3.3-1.8c-0.9-0.8-1.7-1.8-2.2-2.9
			c-0.5-1.2-0.8-2.5-0.8-4.1H374.3z"/>
	</g>
</g>
</svg>
